<?xml version="1.0" encoding="utf-8"?>
<!-- Generator: Adobe Illustrator 16.0.0, SVG Export Plug-In . SVG Version: 6.00 Build 0)  -->
<!DOCTYPE svg PUBLIC "-//W3C//DTD SVG 1.1//EN" "http://www.w3.org/Graphics/SVG/1.1/DTD/svg11.dtd">
<svg version="1.1" xmlns="http://www.w3.org/2000/svg" xmlns:xlink="http://www.w3.org/1999/xlink" x="0px" y="0px" width="344px"
	 height="137px" viewBox="0 0 344 137" enable-background="new 0 0 344 137" xml:space="preserve">
<g id="Layer_2" display="none">
</g>
<g id="Layer_1">
	<g>
		<path fill-rule="evenodd" clip-rule="evenodd" fill="#384A9F" d="M60.337,46.502c0,2.528-2.05,4.579-4.577,4.579h-5.232
			c-2.527,0-4.579-2.051-4.579-4.579l0,0c0-2.528,2.052-4.577,4.579-4.577h5.232C58.287,41.926,60.337,43.974,60.337,46.502
			L60.337,46.502z"/>
		<path fill-rule="evenodd" clip-rule="evenodd" fill="#F47B24" d="M41.164,65.24c0,3.792-3.075,6.867-6.868,6.867h-7.847
			c-3.793,0-6.866-3.075-6.866-6.867l0,0c0-3.793,3.073-6.867,6.866-6.867h7.847C38.089,58.373,41.164,61.447,41.164,65.24
			L41.164,65.24z"/>
		<path fill-rule="evenodd" clip-rule="evenodd" fill="#211C51" d="M70.367,84.866c0,5.057-4.098,9.155-9.156,9.155H50.749
			c-5.058,0-9.157-4.099-9.157-9.155l0,0c0-5.057,4.099-9.156,9.157-9.156h10.462C66.27,75.71,70.367,79.809,70.367,84.866
			L70.367,84.866z"/>
		<g>
			<path fill="#211C51" d="M108.413,78.915c-1.65,1.322-3.426,2.302-5.324,2.94c-1.898,0.639-3.839,0.96-5.82,0.96
				c-2.147,0-4.169-0.29-6.067-0.867c-1.9-0.578-3.559-1.517-4.984-2.816c-1.424-1.301-2.548-2.993-3.374-5.078
				c-0.826-2.084-1.239-4.613-1.239-7.584c0-2.93,0.413-5.438,1.239-7.522c0.825-2.083,1.95-3.797,3.374-5.139
				c1.425-1.341,3.084-2.332,4.984-2.972c1.898-0.64,3.92-0.959,6.067-0.959c1.32,0,2.764,0.186,4.334,0.557
				c1.568,0.371,3.137,0.929,4.707,1.672l-4.087,6.686c-0.703-0.33-1.528-0.567-2.478-0.711c-0.948-0.145-1.773-0.217-2.476-0.217
				c-1.898,0-3.475,0.671-4.734,2.012c-1.262,1.341-1.891,3.54-1.891,6.593c0,1.569,0.166,2.848,0.497,3.839
				c0.328,0.991,0.793,1.795,1.394,2.415c0.597,0.619,1.297,1.073,2.103,1.362c0.806,0.289,1.681,0.475,2.631,0.558
				c1.279,0.124,2.548,0.021,3.809-0.309c1.259-0.331,2.383-0.868,3.374-1.61L108.413,78.915z"/>
			<path fill="#211C51" d="M123.768,51.178c0.494-0.329,1.186-0.649,2.072-0.958c0.887-0.31,1.89-0.465,3.003-0.465
				c0.95,0,1.723,0.042,2.322,0.124c0.598,0.083,0.898,0.104,0.898,0.062v8.234c-0.95-0.083-1.878-0.103-2.787-0.062
				c-0.783,0.083-1.6,0.216-2.444,0.403c-0.848,0.185-1.622,0.525-2.323,1.021c-0.825,0.578-1.414,1.362-1.764,2.352
				c-0.352,0.991-0.526,2.353-0.526,4.086v16.469h-9.287V57.865h-5.014l3.961-7.863h10.34v2.415c0.206-0.164,0.392-0.33,0.558-0.495
				c0.164-0.124,0.33-0.257,0.497-0.403C123.435,51.375,123.601,51.261,123.768,51.178z"/>
			<path fill="#211C51" d="M149.211,61.394c0.33,0,0.775,0.011,1.333,0.031c0.556,0.021,1.185,0.052,1.886,0.093
				c-0.041-1.61-0.608-2.651-1.7-3.127c-1.097-0.474-2.509-0.712-4.242-0.712c-0.951,0-2.044,0.115-3.281,0.341
				c-1.237,0.228-2.581,0.568-4.026,1.021l-0.989-3.405c-0.124-0.454-0.3-1.114-0.526-1.982c-0.227-0.867-0.381-1.547-0.464-2.043
				c2.064-0.701,4.014-1.207,5.851-1.516c1.836-0.31,3.498-0.465,4.983-0.465c4.376,0,7.759,1.043,10.154,3.127
				c2.394,2.084,3.59,5.417,3.59,9.998v18.141c-1.609,0.455-3.467,0.897-5.572,1.331c-2.104,0.433-4.375,0.65-6.81,0.65
				c-2.147,0-4.097-0.187-5.85-0.558c-1.756-0.372-3.262-0.991-4.521-1.857c-1.258-0.867-2.227-2.001-2.908-3.405
				c-0.683-1.402-1.023-3.116-1.023-5.139c0-2.022,0.423-3.714,1.27-5.076c0.846-1.362,1.94-2.446,3.281-3.251
				c1.341-0.804,2.848-1.37,4.519-1.702C145.838,61.559,147.52,61.394,149.211,61.394z M152.43,68.204
				c-0.413-0.082-0.844-0.133-1.299-0.155c-0.456-0.02-0.847-0.031-1.176-0.031c-1.734,0-3.137,0.269-4.209,0.805
				c-1.075,0.537-1.611,1.466-1.611,2.786c0,0.826,0.195,1.477,0.587,1.95c0.392,0.476,0.876,0.826,1.455,1.052
				c0.58,0.229,1.188,0.362,1.827,0.403c0.639,0.042,1.187,0.062,1.642,0.062c0.825,0,1.755-0.103,2.785-0.31V68.204z"/>
			<path fill="#211C51" d="M177.195,50.064v32.317h-9.348V60.031l0.308-2.228h-5.323l4.209-7.739H177.195z M176.948,47.401h-9.287
				v-8.419h9.287V47.401z"/>
			<path fill="#211C51" d="M211.99,54.708l-2.045,2.599c0.289,0.579,0.495,1.208,0.619,1.889c0.125,0.681,0.186,1.352,0.186,2.012
				c0,1.486-0.238,2.952-0.712,4.396c-0.474,1.446-1.258,2.754-2.352,3.931c-1.095,1.177-2.508,2.127-4.242,2.848
				c-1.733,0.723-3.859,1.104-6.376,1.147c-0.166,0.123-0.372,0.299-0.62,0.525c-0.247,0.228-0.372,0.486-0.372,0.773
				c0,0.332,0.239,0.58,0.713,0.744c0.474,0.165,0.939,0.268,1.394,0.309c0.702,0.083,1.433,0.154,2.197,0.217
				c0.764,0.062,1.494,0.134,2.198,0.216c1.61,0.166,3.033,0.527,4.271,1.083c1.237,0.558,2.27,1.27,3.095,2.136
				c0.825,0.867,1.456,1.857,1.889,2.972c0.434,1.114,0.651,2.311,0.651,3.591c0,2.229-0.426,4.075-1.27,5.542
				c-0.848,1.464-1.951,2.619-3.312,3.466c-1.362,0.846-2.921,1.424-4.673,1.734c-1.756,0.309-3.561,0.402-5.418,0.278
				c-1.487-0.083-2.962-0.33-4.426-0.742c-1.467-0.413-2.859-0.929-4.179-1.548c-1.322-0.619-2.541-1.342-3.654-2.166
				c-1.113-0.827-2.064-1.693-2.847-2.601l4.209-5.634c1.239,0.908,2.374,1.651,3.406,2.229c1.031,0.577,2,1.031,2.909,1.362
				c0.908,0.33,1.734,0.567,2.477,0.712c0.742,0.144,1.444,0.258,2.106,0.34c0.618,0.041,1.247,0.041,1.886,0
				c0.641-0.042,1.229-0.175,1.765-0.402c0.538-0.227,0.969-0.537,1.301-0.929c0.33-0.393,0.494-0.939,0.494-1.641
				c0-0.991-0.361-1.703-1.083-2.136c-0.723-0.434-1.909-0.712-3.559-0.836c-0.619-0.041-1.25-0.092-1.889-0.154
				c-0.641-0.062-1.27-0.114-1.889-0.154c-2.434-0.208-4.323-0.877-5.664-2.013c-1.343-1.136-2.014-2.569-2.014-4.303
				c0-0.948,0.187-1.805,0.558-2.569c0.372-0.763,0.909-1.558,1.611-2.383c-1.981-1.197-3.458-2.713-4.426-4.551
				c-0.972-1.836-1.456-3.745-1.456-5.726c0-1.61,0.311-3.127,0.929-4.551c0.619-1.423,1.517-2.662,2.692-3.714
				c1.178-1.053,2.622-1.878,4.334-2.477s3.664-0.898,5.851-0.898c1.239,0,2.517,0.155,3.837,0.465
				c1.322,0.309,2.456,0.711,3.406,1.208c0,0.042,0.383-0.083,1.146-0.372c0.762-0.288,1.619-0.598,2.57-0.929
				c1.073-0.413,2.333-0.845,3.778-1.3V54.708z M197.316,56.379c-1.197,0-2.189,0.423-2.973,1.27
				c-0.784,0.846-1.175,2.054-1.175,3.622c0,1.733,0.391,2.93,1.175,3.59c0.784,0.661,1.754,0.991,2.911,0.991
				c1.362,0,2.384-0.454,3.065-1.362c0.68-0.908,1.02-2.022,1.02-3.343c0-1.486-0.34-2.652-1.02-3.498
				C199.638,56.802,198.636,56.379,197.316,56.379z"/>
			<path fill="#211C51" d="M222.846,69.008c-2.229-0.659-4.065-1.671-5.51-3.034c-1.445-1.362-2.167-3.321-2.167-5.881
				c0-3.22,1.136-5.737,3.406-7.554c2.27-1.815,5.406-2.724,9.41-2.724c1.527,0,3.104,0.166,4.736,0.495
				c1.631,0.331,3.662,0.929,6.098,1.796l-3.714,6.686c-1.28-0.454-2.384-0.793-3.312-1.021c-0.929-0.226-1.992-0.341-3.189-0.341
				c-1.115,0-1.992,0.155-2.631,0.465c-0.639,0.31-0.96,0.815-0.96,1.516c0,0.58,0.237,0.992,0.712,1.239
				c0.475,0.248,1.104,0.516,1.89,0.805l3.342,0.99c1.114,0.33,2.158,0.722,3.125,1.177c0.97,0.455,1.797,1.021,2.479,1.703
				c0.68,0.681,1.216,1.538,1.607,2.569c0.394,1.032,0.589,2.291,0.589,3.775c0,1.569-0.317,3.025-0.958,4.365
				c-0.641,1.341-1.57,2.508-2.787,3.499c-1.217,0.99-2.703,1.765-4.458,2.321c-1.754,0.557-3.745,0.836-5.975,0.836
				c-0.866,0-1.702-0.031-2.506-0.093c-0.806-0.061-1.601-0.166-2.384-0.31c-0.785-0.144-1.609-0.34-2.477-0.588
				c-0.867-0.247-1.795-0.536-2.786-0.867c0.083-0.288,0.164-0.619,0.248-0.99c0.082-0.371,0.207-0.837,0.371-1.393
				c0.166-0.557,0.35-1.228,0.558-2.012c0.205-0.784,0.475-1.754,0.803-2.909c1.736,0.455,3.19,0.783,4.365,0.989
				c1.177,0.208,2.362,0.309,3.56,0.309c0.495,0,1.021-0.04,1.579-0.124c0.558-0.082,1.084-0.227,1.578-0.434
				c0.497-0.206,0.909-0.474,1.239-0.805c0.33-0.329,0.497-0.762,0.497-1.299c0-0.62-0.218-1.053-0.651-1.302
				c-0.433-0.247-1.084-0.515-1.95-0.804L222.846,69.008z"/>
			<path fill="#211C51" d="M242,37.62h9.348v31.884c0,1.073,0.062,1.94,0.186,2.6c0.125,0.661,0.32,1.176,0.587,1.547
				c0.27,0.372,0.609,0.619,1.022,0.744c0.412,0.123,0.906,0.185,1.487,0.185c0.288,0,0.619-0.009,0.989-0.03
				c0.372-0.021,0.992-0.113,1.859-0.28l0.557,7.74c-1.075,0.33-2.075,0.535-3.001,0.619c-0.93,0.082-1.766,0.123-2.509,0.123
				c-3.303,0-5.879-0.898-7.738-2.694C242.927,78.265,242,75.346,242,71.3V37.62z"/>
			<path fill="#211C51" d="M272.088,50.064v32.317h-9.349V60.031l0.311-2.228h-5.325l4.209-7.739H272.088z M271.841,47.401h-9.287
				v-8.419h9.287V47.401z"/>
			<path fill="#211C51" d="M285.708,69.008c-2.229-0.659-4.066-1.671-5.51-3.034c-1.445-1.362-2.166-3.321-2.166-5.881
				c0-3.22,1.133-5.737,3.405-7.554c2.269-1.815,5.406-2.724,9.41-2.724c1.527,0,3.105,0.166,4.737,0.495
				c1.629,0.331,3.66,0.929,6.097,1.796l-3.715,6.686c-1.28-0.454-2.381-0.793-3.311-1.021c-0.93-0.226-1.993-0.341-3.188-0.341
				c-1.115,0-1.995,0.155-2.634,0.465c-0.639,0.31-0.959,0.815-0.959,1.516c0,0.58,0.238,0.992,0.712,1.239
				c0.474,0.248,1.104,0.516,1.889,0.805l3.342,0.99c1.116,0.33,2.158,0.722,3.126,1.177c0.97,0.455,1.797,1.021,2.478,1.703
				c0.68,0.681,1.216,1.538,1.609,2.569c0.391,1.032,0.587,2.291,0.587,3.775c0,1.569-0.319,3.025-0.959,4.365
				c-0.641,1.341-1.568,2.508-2.786,3.499c-1.217,0.99-2.705,1.765-4.458,2.321c-1.754,0.557-3.745,0.836-5.975,0.836
				c-0.866,0-1.702-0.031-2.508-0.093c-0.805-0.061-1.6-0.166-2.384-0.31c-0.783-0.144-1.609-0.34-2.477-0.588
				c-0.867-0.247-1.795-0.536-2.784-0.867c0.081-0.288,0.163-0.619,0.247-0.99c0.083-0.371,0.207-0.837,0.371-1.393
				c0.166-0.557,0.352-1.228,0.558-2.012c0.207-0.784,0.475-1.754,0.805-2.909c1.734,0.455,3.19,0.783,4.364,0.989
				c1.178,0.208,2.364,0.309,3.561,0.309c0.496,0,1.022-0.04,1.58-0.124c0.557-0.082,1.084-0.227,1.58-0.434
				c0.495-0.206,0.906-0.474,1.237-0.805c0.331-0.329,0.496-0.762,0.496-1.299c0-0.62-0.217-1.053-0.65-1.302
				c-0.433-0.247-1.083-0.515-1.95-0.804L285.708,69.008z"/>
			<path fill="#211C51" d="M308.738,57.803h-3.839v-7.801h3.839v-8.791h9.287v8.791h7.678l-4.334,7.801h-3.653l0.309,1.981v9.72
				c0,1.073,0.072,1.94,0.217,2.6c0.144,0.661,0.369,1.176,0.68,1.547c0.311,0.372,0.702,0.63,1.177,0.774
				c0.475,0.145,1.021,0.217,1.642,0.217c0.453,0,1.011-0.051,1.672-0.155c0.66-0.103,1.361-0.217,2.104-0.341l0.496,4.149
				l0.372,3.715c-1.198,0.247-2.292,0.433-3.282,0.556c-0.989,0.124-2.001,0.186-3.034,0.186c-3.837,0-6.686-0.887-8.543-2.662
				c-1.857-1.774-2.786-4.706-2.786-8.792V57.803z"/>
		</g>
	</g>
</g>
</svg>
